# xmcd CD database file
#
# Track frame offsets:
#	150
#	36796
#	66401
#	98059
#	119002
#	200037
#	228502
#	298262
#
# Disc length: 4516 seconds
#
# Revision: 2
# Processed by: cddbd v1.5.2PL0 Copyright (c) Steve Scherf et al.
# Submitted via: CDex 1.85
#
DISCID=7e11a208
DTITLE=John Mayall and The Bluesbreakers - 70th Birthday Concert
DYEAR=2003
DGENRE=Blues
TTITLE0=Dirty Water
TTITLE1=Walking On Sunset
TTITLE2=Please Mr. Lofton
TTITLE3=Hideaway
TTITLE4=Have You Heard
TTITLE5=It Aintt Right
TTITLE6=California
TTITLE7=Talk To Your Daughter
EXTD=John Mayall and Bluesbreakers and friends:\nEric Clapton - Chris Barber - Mick Taylor\nBuddy Wash YEAR: 2003
EXTT0=
EXTT1=
EXTT2=
EXTT3=
EXTT4=
EXTT5=
EXTT6=
EXTT7=
PLAYORDER=
